<svg version="1.1" id="Layer_1" xmlns="http://www.w3.org/2000/svg" xmlns:xlink="http://www.w3.org/1999/xlink" x="0px" y="0px"
	 width="100%" viewBox="0 0 500 500" enable-background="new 0 0 500 500" xml:space="preserve">
<path fill="#000000" opacity="1.000000" stroke="none" 
	d="
M459.000000,501.000000 
	C306.000031,501.000000 153.500076,501.000000 1.000082,501.000000 
	C1.000055,334.333405 1.000055,167.666824 1.000027,1.000171 
	C167.666550,1.000114 334.333099,1.000114 500.999756,1.000057 
	C500.999817,167.666519 500.999817,334.333038 500.999908,500.999756 
	C487.166656,501.000000 473.333344,501.000000 459.000000,501.000000 
M170.916779,274.510406 
	C173.513931,274.510406 176.111099,274.510406 179.247894,274.510406 
	C179.247894,265.520386 179.247894,257.324677 179.247894,247.842987 
	C181.041748,250.201813 182.060226,251.450653 182.981857,252.767288 
	C190.140488,262.993927 197.282166,273.232483 204.425598,283.469757 
	C209.574753,290.849030 211.147079,291.421387 220.653549,289.294525 
	C220.653549,268.132721 220.653549,246.952423 220.653549,225.617249 
	C216.646133,225.617249 213.072357,225.617249 208.891083,225.617249 
	C208.891083,239.321213 208.891083,252.679398 208.891083,266.037598 
	C206.905807,265.122101 205.898331,263.921509 205.000671,262.643768 
	C197.824661,252.429031 190.663132,242.204117 183.509872,231.973434 
	C178.233154,224.426575 176.813675,223.883591 166.875443,226.032791 
	C166.875443,241.197861 166.820114,256.483673 167.011826,271.766388 
	C167.023422,272.690582 169.000732,273.590118 170.916779,274.510406 
M348.950928,277.993347 
	C345.172241,277.993347 341.393555,277.993347 337.494873,277.993347 
	C337.494873,282.415192 337.494873,286.091003 337.494873,290.510864 
	C343.926300,289.915802 349.989532,289.985229 355.741241,288.680969 
	C365.353210,286.501312 371.085602,278.562164 369.086639,269.558441 
	C368.078674,265.018250 364.466583,261.056183 361.901306,256.605988 
	C367.788513,253.020508 369.756927,246.794998 368.032104,239.190964 
	C366.300140,231.555466 360.809631,227.341003 353.707092,226.407364 
	C344.402100,225.184235 334.918518,225.319611 325.155823,224.853668 
	C325.155823,238.352493 325.155823,250.894241 325.155823,263.884064 
	C332.965668,263.884064 340.434082,263.780640 347.897736,263.924530 
	C352.089264,264.005310 356.155212,265.021332 356.876282,270.008240 
	C357.613037,275.103760 354.127502,277.019196 348.950928,277.993347 
M278.589905,226.201401 
	C278.421356,229.618530 278.252808,233.035660 278.054474,237.056686 
	C283.687805,237.056686 288.636810,236.969330 293.580963,237.086487 
	C297.053619,237.168777 300.580261,237.209595 303.972504,237.851562 
	C307.746033,238.565659 309.451050,241.309433 309.279358,245.179794 
	C309.111633,248.960648 306.836670,250.922363 303.436920,251.627151 
	C301.508209,252.026962 299.468079,251.963882 297.477325,251.976135 
	C291.210480,252.014740 284.943237,251.990356 278.136475,251.990356 
	C278.136475,261.758636 278.136444,270.874817 278.136505,279.990997 
	C278.136597,291.256439 278.136719,291.257202 289.520966,289.701080 
	C289.662842,289.681671 289.787445,289.535858 290.685913,288.947968 
	C290.685913,281.081451 290.685913,272.691254 290.685913,264.644104 
	C295.757599,262.860748 298.116364,264.544678 299.771088,268.682159 
	C302.238403,274.851410 305.127502,280.863892 308.109650,286.806335 
	C308.788300,288.158661 310.482513,289.662384 311.882599,289.858368 
	C315.110260,290.310120 318.444305,290.001678 322.746887,290.001678 
	C318.340942,280.268616 314.279510,271.296539 310.244385,262.382660 
	C310.998749,261.798187 311.359436,261.451660 311.778534,261.203918 
	C320.040649,256.319519 323.203278,249.427002 321.378235,240.250870 
	C319.707703,231.851562 314.610168,226.774109 305.149963,225.945190 
	C296.580078,225.194290 287.901489,225.683884 278.589905,226.201401 
M384.068054,269.535217 
	C383.308929,264.870667 385.002625,262.822388 389.973175,263.325623 
	C393.764771,263.709473 397.626465,263.401031 401.456970,263.400696 
	C411.180725,263.399841 411.184692,263.399445 410.178680,253.737122 
	C410.128174,253.251907 409.906464,252.784531 409.571808,251.663834 
	C401.338470,251.663834 392.928955,251.663834 384.487762,251.663834 
	C384.487762,246.457382 384.487762,241.916428 384.487762,237.010590 
	C390.528931,237.010590 396.157043,237.010590 402.112610,237.010590 
	C402.112610,233.064209 402.112610,229.492004 402.112610,225.262451 
	C393.359833,225.262451 384.915161,225.435272 376.483063,225.184906 
	C372.634918,225.070633 371.718018,226.508453 371.747711,230.119690 
	C371.899658,248.604782 371.808624,267.091827 371.839081,285.578125 
	C371.841400,286.988556 372.127045,288.398560 372.282471,289.822144 
	C382.468658,289.822144 392.103302,289.822144 402.091553,289.822144 
	C402.091553,285.902039 402.091553,282.160645 402.091553,277.883728 
	C396.061859,277.883728 390.311981,277.883728 384.067932,277.883728 
	C384.067932,275.064758 384.067932,272.773804 384.068054,269.535217 
M273.414368,240.966080 
	C273.887146,240.140915 274.359924,239.315750 274.871735,238.422440 
	C265.998199,236.544830 258.108429,236.700699 254.155991,247.471161 
	C249.674210,241.190613 246.012314,236.055984 242.347198,230.923645 
	C238.076599,224.943466 231.530594,223.293991 224.147522,226.576019 
	C231.235901,236.517136 238.401459,246.317429 245.233353,256.345093 
	C246.708664,258.510498 247.600464,261.472137 247.695724,264.105591 
	C248.001953,272.570068 247.809692,281.052582 247.809692,289.676727 
	C252.041977,289.676727 255.782654,289.676727 260.072113,289.676727 
	C260.072113,286.896820 260.382355,284.393463 260.021759,281.990845 
	C257.672699,266.338593 262.039612,252.902191 273.414368,240.966080 
M105.610741,234.782333 
	C104.934120,232.905960 104.407043,230.956131 103.532799,229.176849 
	C102.853256,227.793808 101.867935,225.676422 100.797478,225.532806 
	C97.324028,225.066711 93.748886,225.358566 89.419159,225.358566 
	C97.966850,247.556702 106.098404,268.674133 114.229958,289.791534 
	C114.696129,289.784393 115.162300,289.777222 115.628464,289.770050 
	C122.283440,272.574738 128.938416,255.379440 135.643280,238.055252 
	C124.540253,235.864960 123.810661,236.262238 120.419113,245.671600 
	C118.786354,250.201477 117.130608,254.723068 115.485268,259.248383 
	C115.073944,259.153931 114.662621,259.059448 114.251305,258.964996 
	C111.461510,251.147766 108.671722,243.330566 105.610741,234.782333 
M138.952789,279.350891 
	C138.630951,282.696381 138.309097,286.041840 137.954559,289.727234 
	C147.485977,289.727234 156.088989,289.727234 165.102783,289.727234 
	C165.102783,286.242188 165.102783,282.841705 165.102783,279.298615 
	C162.788239,279.063721 160.690857,278.850861 157.964233,278.574158 
	C157.964233,260.837067 157.964233,243.285950 157.964233,225.724289 
	C153.597351,225.724289 149.899719,225.724289 145.690292,225.724289 
	C145.690292,243.618042 145.690292,261.049438 145.690292,278.704926 
	C143.385269,278.841461 141.585388,278.948059 138.952789,279.350891 
z"/>
<path fill="#9A7A37" opacity="1.000000" stroke="none" 
	d="
M170.490082,274.505768 
	C169.000732,273.590118 167.023422,272.690582 167.011826,271.766388 
	C166.820114,256.483673 166.875443,241.197861 166.875443,226.032791 
	C176.813675,223.883591 178.233154,224.426575 183.509872,231.973434 
	C190.663132,242.204117 197.824661,252.429031 205.000671,262.643768 
	C205.898331,263.921509 206.905807,265.122101 208.891083,266.037598 
	C208.891083,252.679398 208.891083,239.321213 208.891083,225.617249 
	C213.072357,225.617249 216.646133,225.617249 220.653549,225.617249 
	C220.653549,246.952423 220.653549,268.132721 220.653549,289.294525 
	C211.147079,291.421387 209.574753,290.849030 204.425598,283.469757 
	C197.282166,273.232483 190.140488,262.993927 182.981857,252.767288 
	C182.060226,251.450653 181.041748,250.201813 179.247894,247.842987 
	C179.247894,257.324677 179.247894,265.520386 179.247894,274.510406 
	C176.111099,274.510406 173.513931,274.510406 170.490082,274.505768 
z"/>
<path fill="#997A37" opacity="1.000000" stroke="none" 
	d="
M349.386353,277.960815 
	C354.127502,277.019196 357.613037,275.103760 356.876282,270.008240 
	C356.155212,265.021332 352.089264,264.005310 347.897736,263.924530 
	C340.434082,263.780640 332.965668,263.884064 325.155823,263.884064 
	C325.155823,250.894241 325.155823,238.352493 325.155823,224.853668 
	C334.918518,225.319611 344.402100,225.184235 353.707092,226.407364 
	C360.809631,227.341003 366.300140,231.555466 368.032104,239.190964 
	C369.756927,246.794998 367.788513,253.020508 361.901306,256.605988 
	C364.466583,261.056183 368.078674,265.018250 369.086639,269.558441 
	C371.085602,278.562164 365.353210,286.501312 355.741241,288.680969 
	C349.989532,289.985229 343.926300,289.915802 337.494873,290.510864 
	C337.494873,286.091003 337.494873,282.415192 337.494873,277.993347 
	C341.393555,277.993347 345.172241,277.993347 349.386353,277.960815 
M355.955292,242.909851 
	C352.964172,236.953461 346.912109,235.267685 337.422302,237.716690 
	C337.422302,242.285065 337.422302,246.831528 337.422302,251.952225 
	C341.806427,251.694977 345.792023,251.729980 349.688568,251.158203 
	C353.732483,250.564804 356.386658,248.285583 355.955292,242.909851 
z"/>
<path fill="#987936" opacity="1.000000" stroke="none" 
	d="
M278.930359,225.913971 
	C287.901489,225.683884 296.580078,225.194290 305.149963,225.945190 
	C314.610168,226.774109 319.707703,231.851562 321.378235,240.250870 
	C323.203278,249.427002 320.040649,256.319519 311.778534,261.203918 
	C311.359436,261.451660 310.998749,261.798187 310.244385,262.382660 
	C314.279510,271.296539 318.340942,280.268616 322.746887,290.001678 
	C318.444305,290.001678 315.110260,290.310120 311.882599,289.858368 
	C310.482513,289.662384 308.788300,288.158661 308.109650,286.806335 
	C305.127502,280.863892 302.238403,274.851410 299.771088,268.682159 
	C298.116364,264.544678 295.757599,262.860748 290.685913,264.644104 
	C290.685913,272.691254 290.685913,281.081451 290.685913,288.947968 
	C289.787445,289.535858 289.662842,289.681671 289.520966,289.701080 
	C278.136719,291.257202 278.136597,291.256439 278.136505,279.990997 
	C278.136444,270.874817 278.136475,261.758636 278.136475,251.990356 
	C284.943237,251.990356 291.210480,252.014740 297.477325,251.976135 
	C299.468079,251.963882 301.508209,252.026962 303.436920,251.627151 
	C306.836670,250.922363 309.111633,248.960648 309.279358,245.179794 
	C309.451050,241.309433 307.746033,238.565659 303.972504,237.851562 
	C300.580261,237.209595 297.053619,237.168777 293.580963,237.086487 
	C288.636810,236.969330 283.687805,237.056686 278.054474,237.056686 
	C278.252808,233.035660 278.421356,229.618530 278.930359,225.913971 
z"/>
<path fill="#9B7B38" opacity="1.000000" stroke="none" 
	d="
M384.067993,270.009033 
	C384.067932,272.773804 384.067932,275.064758 384.067932,277.883728 
	C390.311981,277.883728 396.061859,277.883728 402.091553,277.883728 
	C402.091553,282.160645 402.091553,285.902039 402.091553,289.822144 
	C392.103302,289.822144 382.468658,289.822144 372.282471,289.822144 
	C372.127045,288.398560 371.841400,286.988556 371.839081,285.578125 
	C371.808624,267.091827 371.899658,248.604782 371.747711,230.119690 
	C371.718018,226.508453 372.634918,225.070633 376.483063,225.184906 
	C384.915161,225.435272 393.359833,225.262451 402.112610,225.262451 
	C402.112610,229.492004 402.112610,233.064209 402.112610,237.010590 
	C396.157043,237.010590 390.528931,237.010590 384.487762,237.010590 
	C384.487762,241.916428 384.487762,246.457382 384.487762,251.663834 
	C392.928955,251.663834 401.338470,251.663834 409.571808,251.663834 
	C409.906464,252.784531 410.128174,253.251907 410.178680,253.737122 
	C411.184692,263.399445 411.180725,263.399841 401.456970,263.400696 
	C397.626465,263.401031 393.764771,263.709473 389.973175,263.325623 
	C385.002625,262.822388 383.308929,264.870667 384.067993,270.009033 
z"/>
<path fill="#9A7A37" opacity="1.000000" stroke="none" 
	d="
M273.207275,241.258911 
	C262.039612,252.902191 257.672699,266.338593 260.021759,281.990845 
	C260.382355,284.393463 260.072113,286.896820 260.072113,289.676727 
	C255.782654,289.676727 252.041977,289.676727 247.809692,289.676727 
	C247.809692,281.052582 248.001953,272.570068 247.695724,264.105591 
	C247.600464,261.472137 246.708664,258.510498 245.233353,256.345093 
	C238.401459,246.317429 231.235901,236.517136 224.147522,226.576019 
	C231.530594,223.293991 238.076599,224.943466 242.347198,230.923645 
	C246.012314,236.055984 249.674210,241.190613 254.155991,247.471161 
	C258.108429,236.700699 265.998199,236.544830 274.871735,238.422440 
	C274.359924,239.315750 273.887146,240.140915 273.207275,241.258911 
z"/>
<path fill="#977836" opacity="1.000000" stroke="none" 
	d="
M105.746338,235.147842 
	C108.671722,243.330566 111.461510,251.147766 114.251305,258.964996 
	C114.662621,259.059448 115.073944,259.153931 115.485268,259.248383 
	C117.130608,254.723068 118.786354,250.201477 120.419113,245.671600 
	C123.810661,236.262238 124.540253,235.864960 135.643280,238.055252 
	C128.938416,255.379440 122.283440,272.574738 115.628464,289.770050 
	C115.162300,289.777222 114.696129,289.784393 114.229958,289.791534 
	C106.098404,268.674133 97.966850,247.556702 89.419159,225.358566 
	C93.748886,225.358566 97.324028,225.066711 100.797478,225.532806 
	C101.867935,225.676422 102.853256,227.793808 103.532799,229.176849 
	C104.407043,230.956131 104.934120,232.905960 105.746338,235.147842 
z"/>
<path fill="#9A7A37" opacity="1.000000" stroke="none" 
	d="
M139.369141,279.202789 
	C141.585388,278.948059 143.385269,278.841461 145.690292,278.704926 
	C145.690292,261.049438 145.690292,243.618042 145.690292,225.724289 
	C149.899719,225.724289 153.597351,225.724289 157.964233,225.724289 
	C157.964233,243.285950 157.964233,260.837067 157.964233,278.574158 
	C160.690857,278.850861 162.788239,279.063721 165.102783,279.298615 
	C165.102783,282.841705 165.102783,286.242188 165.102783,289.727234 
	C156.088989,289.727234 147.485977,289.727234 137.954559,289.727234 
	C138.309097,286.041840 138.630951,282.696381 139.369141,279.202789 
z"/>
<path fill="#040301" opacity="1.000000" stroke="none" 
	d="
M355.998840,243.307281 
	C356.386658,248.285583 353.732483,250.564804 349.688568,251.158203 
	C345.792023,251.729980 341.806427,251.694977 337.422302,251.952225 
	C337.422302,246.831528 337.422302,242.285065 337.422302,237.716690 
	C346.912109,235.267685 352.964172,236.953461 355.998840,243.307281 
z"/>
</svg>