<svg xmlns="http://www.w3.org/2000/svg"  viewBox="0 0 50 50" width="100px" height="100px"><path d="M 45.783203 12.765625 C 44.652203 12.797625 40.900391 12.904297 40.900391 12.904297 L 42.291016 22.611328 C 42.291016 22.611328 47.542359 22.610328 49.693359 22.611328 C 49.818359 22.611328 49.928797 22.528203 49.966797 22.408203 C 50.003797 22.288203 49.959422 22.158938 49.857422 22.085938 C 48.965422 21.448938 47.580078 20.460938 47.580078 20.460938 L 44.0625 20.460938 L 43.841797 18.341797 C 43.841797 18.341797 45.66575 18.285719 46.46875 18.261719 C 46.68275 18.255719 46.858812 18.092906 46.882812 17.878906 C 46.916812 17.578906 46.958984 17.205078 46.958984 17.205078 C 46.958984 17.205078 46.864438 16.992156 46.773438 16.785156 C 46.670437 16.551156 46.438547 16.403203 46.185547 16.408203 C 45.331547 16.425203 43.470703 16.460938 43.470703 16.460938 L 43.175781 14.488281 C 43.175781 14.488281 45.125594 14.394469 45.933594 14.355469 C 46.135594 14.345469 46.302937 14.195141 46.335938 13.994141 C 46.377937 13.741141 46.427734 13.443359 46.427734 13.443359 C 46.427734 13.443359 46.329234 13.233875 46.240234 13.046875 C 46.156234 12.869875 45.977203 12.759625 45.783203 12.765625 z M 4.2519531 12.904297 C 3.9869531 12.904297 3.758125 13.091516 3.703125 13.353516 C 3.360125 14.991516 2.1953125 20.550781 2.1953125 20.550781 C 2.1953125 20.550781 1.0012969 21.405672 0.15429688 22.013672 C 0.038296875 22.096672 -0.010796875 22.246813 0.033203125 22.382812 C 0.076203125 22.518812 0.20370313 22.611328 0.34570312 22.611328 L 4.0097656 22.611328 C 4.0097656 22.611328 4.7973594 17.478031 5.0683594 15.707031 C 5.0753594 15.660031 5.1141094 15.625 5.1621094 15.625 C 5.2091094 15.625 5.2517656 15.658078 5.2597656 15.705078 C 5.4937656 17.091078 6.0734531 20.544609 6.3144531 21.974609 C 6.3764531 22.341609 6.6935 22.611328 7.0625 22.611328 L 7.6894531 22.611328 C 7.9664531 22.611328 8.2179375 22.451219 8.3359375 22.199219 C 8.9469375 20.905219 10.826797 16.926266 11.466797 15.572266 C 11.485797 15.533266 11.528312 15.512438 11.570312 15.523438 C 11.612312 15.535438 11.640719 15.575141 11.636719 15.619141 C 11.479719 17.300141 10.982422 22.611328 10.982422 22.611328 L 13.875 22.611328 C 13.998 22.611328 14.107297 22.537828 14.154297 22.423828 C 14.201297 22.309828 14.177797 22.177844 14.091797 22.089844 C 13.700797 21.689844 13.226562 21.207031 13.226562 21.207031 C 13.226562 21.207031 13.788172 15.137906 13.951172 13.378906 C 13.962172 13.257906 13.922797 13.136875 13.841797 13.046875 C 13.760797 12.956875 13.646391 12.90625 13.525391 12.90625 L 11.517578 12.90625 C 11.255578 12.90625 11.014531 13.053109 10.894531 13.287109 C 10.214531 14.603109 8.0078125 18.878906 8.0078125 18.878906 C 8.0078125 18.878906 7.1681875 14.859063 6.8671875 13.414062 C 6.8051875 13.117062 6.5451406 12.904297 6.2441406 12.904297 L 4.2519531 12.904297 z M 31.791016 12.994141 C 31.672016 12.994141 31.561953 13.057156 31.501953 13.160156 C 31.441953 13.263156 31.441 13.391141 31.5 13.494141 C 31.745 13.924141 32.058594 14.476562 32.058594 14.476562 L 32.410156 21.058594 C 32.410156 21.058594 32.122297 21.657328 31.904297 22.111328 C 31.852297 22.219328 31.859828 22.346266 31.923828 22.447266 C 31.987828 22.549266 32.09875 22.611328 32.21875 22.611328 L 34.927734 22.611328 C 35.050734 22.611328 35.163797 22.539687 35.216797 22.429688 C 35.270797 22.318688 35.255688 22.187797 35.179688 22.091797 C 34.861688 21.691797 34.474609 21.205078 34.474609 21.205078 L 34.169922 14.476562 C 34.169922 14.476562 34.388406 13.953297 34.566406 13.529297 C 34.616406 13.410297 34.60325 13.275969 34.53125 13.167969 C 34.46025 13.060969 34.339937 12.994141 34.210938 12.994141 L 31.791016 12.994141 z M 35.714844 12.994141 C 35.584844 12.994141 35.459094 13.049531 35.371094 13.144531 C 35.283094 13.240531 35.238047 13.366094 35.248047 13.496094 C 35.377047 15.187094 35.796062 20.652219 35.914062 22.199219 C 35.932062 22.431219 36.126375 22.611328 36.359375 22.611328 C 37.418375 22.610328 40.228703 22.610375 41.345703 22.609375 C 41.464703 22.609375 41.578203 22.559703 41.658203 22.470703 C 41.738203 22.381703 41.777625 22.263531 41.765625 22.144531 C 41.726625 21.761531 41.669859 21.222844 41.630859 20.839844 C 41.603859 20.573844 41.378328 20.371094 41.111328 20.371094 L 37.908203 20.371094 C 37.908203 20.371094 37.444594 14.999828 37.308594 13.423828 C 37.287594 13.180828 37.083844 12.994141 36.839844 12.994141 L 35.714844 12.994141 z M 24.921875 13.085938 C 24.755875 13.085938 24.596516 13.150578 24.478516 13.267578 C 24.361516 13.384578 24.296875 13.544938 24.296875 13.710938 L 24.296875 22.042969 C 24.296875 22.193969 24.355891 22.338313 24.462891 22.445312 C 24.569891 22.552312 24.714234 22.611328 24.865234 22.611328 L 28.880859 22.611328 C 30.828859 22.578328 31.371094 20.8125 31.371094 20.8125 C 31.620094 20.1465 31.419922 19.15625 31.419922 19.15625 C 31.150922 17.75225 29.222656 17.294922 29.222656 17.294922 C 30.729656 16.893922 30.720703 15.726562 30.720703 15.726562 C 30.757703 15.498563 30.75075 15.250188 30.71875 14.992188 C 30.59075 13.669187 29.091406 13.095937 28.566406 13.085938 L 24.921875 13.085938 z M 19.232422 13.101562 C 16.635422 12.881562 14.351859 14.828219 14.130859 17.449219 C 13.908859 20.070219 15.832687 22.37375 18.429688 22.59375 C 21.026688 22.81375 23.311203 20.865141 23.533203 18.244141 C 23.755203 15.623141 21.829422 13.321563 19.232422 13.101562 z M 27.845703 14.376953 C 27.845703 14.376953 28.601937 14.81425 28.585938 15.53125 C 28.585938 15.53125 28.640094 16.590422 27.746094 16.607422 L 26.417969 16.607422 L 26.417969 14.398438 L 27.845703 14.376953 z M 18.873047 14.662109 C 19.039432 14.645475 19.207828 14.650359 19.376953 14.677734 C 20.729953 14.897734 21.594594 16.504625 21.308594 18.265625 C 21.022594 20.026625 19.694797 21.276641 18.341797 21.056641 C 16.988797 20.836641 16.122203 19.231703 16.408203 17.470703 C 16.658453 15.928953 17.708354 14.778553 18.873047 14.662109 z M 26.417969 18.480469 L 28.138672 18.480469 C 28.138672 18.480469 29.076172 18.914078 29.076172 19.705078 C 29.076172 19.705078 29.055672 20.690187 28.138672 20.992188 L 26.417969 20.992188 L 26.417969 18.480469 z M 3.8515625 23.5 C 3.7145625 23.5 3.599125 23.598422 3.578125 23.732422 C 3.387125 24.877422 2.5434219 29.936688 2.2324219 31.804688 C 2.2044219 31.972687 2.2541406 32.143531 2.3691406 32.269531 C 2.4841406 32.395531 2.6503125 32.463172 2.8203125 32.451172 C 4.2833125 32.348172 7.5165781 32.119141 7.5175781 32.119141 L 7.8300781 30.398438 L 4.6054688 30.398438 C 4.6054688 30.398437 5.3961406 25.309047 5.6191406 23.873047 C 5.6341406 23.780047 5.608875 23.685281 5.546875 23.613281 C 5.484875 23.541281 5.3957812 23.5 5.3007812 23.5 L 3.8515625 23.5 z M 43.794922 23.6875 C 43.311922 23.7295 43.059266 23.794594 42.697266 23.933594 C 41.098266 24.547594 41.642578 26.248047 41.642578 26.248047 C 41.771578 27.203047 43.306641 28.160156 43.306641 28.160156 C 43.778641 28.464156 45.373047 29.177734 45.373047 29.177734 C 46.418047 29.876734 45.501078 30.651828 44.830078 30.548828 C 43.849078 30.397828 43.205547 30.196344 42.810547 30.027344 C 42.700547 29.963344 42.564078 29.963297 42.455078 30.029297 C 42.346078 30.094297 42.280156 30.21575 42.285156 30.34375 C 42.296156 30.63475 42.309172 30.974469 42.326172 31.230469 C 42.336172 31.478469 42.487797 31.699875 42.716797 31.796875 C 44.633797 32.600875 46.353516 32.161109 46.353516 32.162109 C 47.900516 31.679109 47.90625 30.339844 47.90625 30.339844 C 47.99725 28.519844 46.382812 27.712891 46.382812 27.712891 C 45.337813 27.133891 44.357719 26.589203 44.011719 26.408203 C 42.927719 25.842203 43.944938 25.208797 44.710938 25.216797 C 45.935938 25.229797 46.730469 25.414062 46.730469 25.414062 C 46.730469 25.414062 46.954078 24.553406 47.080078 24.066406 C 47.100078 23.988406 47.082203 23.903844 47.033203 23.839844 C 46.984203 23.775844 46.909125 23.737328 46.828125 23.736328 C 45.975125 23.722328 43.794922 23.6875 43.794922 23.6875 z M 17.888672 23.689453 C 17.341922 23.697328 16.919922 23.730469 16.919922 23.730469 C 14.275922 23.918469 13.531953 26.619875 13.501953 27.921875 C 13.615953 30.975875 15.710938 31.326172 15.710938 31.326172 C 17.304937 31.782172 18.798219 31.289844 19.574219 30.964844 C 19.898219 30.805844 20.108094 30.481094 20.121094 30.121094 C 20.148094 29.381094 20.195656 28.068266 20.222656 27.322266 C 20.228656 27.176266 20.172313 27.034688 20.070312 26.929688 C 19.968312 26.823688 19.828641 26.763672 19.681641 26.763672 C 19.095641 26.764672 18.184 26.768531 17.625 26.769531 C 17.347 26.769531 17.114844 26.982766 17.089844 27.259766 C 17.076844 27.398766 17.063781 27.550406 17.050781 27.691406 C 17.038781 27.825406 17.082875 27.958547 17.171875 28.060547 C 17.260875 28.162547 17.386484 28.223469 17.521484 28.230469 C 17.708484 28.240469 17.915891 28.250766 18.087891 28.259766 C 18.184891 28.264766 18.274891 28.308812 18.337891 28.382812 C 18.400891 28.456813 18.430922 28.554391 18.419922 28.650391 C 18.375922 29.048391 18.310547 29.623047 18.310547 29.623047 C 16.937547 30.161047 16.015625 29.400391 16.015625 29.400391 C 14.657625 28.239391 15.343391 25.950688 16.900391 25.304688 C 17.729391 24.960688 18.686828 25.166484 19.298828 25.396484 C 19.458828 25.449484 19.633437 25.425984 19.773438 25.333984 C 19.913438 25.241984 20.004531 25.090828 20.019531 24.923828 C 20.031531 24.787828 20.042109 24.647531 20.037109 24.519531 C 20.065109 24.212531 19.889516 23.922641 19.603516 23.806641 C 19.105516 23.700141 18.435422 23.681578 17.888672 23.689453 z M 9.8066406 23.738281 C 9.4596406 23.738281 9.1652344 23.993891 9.1152344 24.337891 C 8.9112344 25.739891 8.4024063 29.225781 8.1914062 30.675781 C 8.1674063 30.838781 8.2162187 31.003906 8.3242188 31.128906 C 8.4322187 31.252906 8.5889063 31.324219 8.7539062 31.324219 C 9.7229062 31.324219 11.513906 31.323266 12.378906 31.322266 C 12.658906 31.322266 12.892062 31.109078 12.914062 30.830078 C 12.924062 30.715078 12.933359 30.590703 12.943359 30.470703 C 12.956359 30.306703 12.900109 30.144437 12.787109 30.023438 C 12.675109 29.903438 12.516562 29.835891 12.351562 29.837891 C 11.876563 29.842891 11.236391 29.850469 10.775391 29.855469 C 10.628391 29.856469 10.486672 29.794594 10.388672 29.683594 C 10.289672 29.572594 10.244672 29.424344 10.263672 29.277344 C 10.289672 29.079344 10.317797 28.863688 10.341797 28.679688 C 10.373797 28.430688 10.579078 28.241422 10.830078 28.232422 C 11.285078 28.215422 11.995266 28.189828 12.447266 28.173828 C 12.692266 28.164828 12.894922 27.976422 12.919922 27.732422 C 12.938922 27.547422 12.961469 27.330484 12.980469 27.146484 C 12.992469 27.037484 12.957766 26.929656 12.884766 26.847656 C 12.812766 26.766656 12.708609 26.71975 12.599609 26.71875 C 12.201609 26.71375 11.602875 26.704219 11.171875 26.699219 C 11.034875 26.697219 10.905453 26.638156 10.814453 26.535156 C 10.723453 26.433156 10.680312 26.296156 10.695312 26.160156 C 10.714312 25.985156 10.735906 25.793906 10.753906 25.628906 C 10.779906 25.392906 10.979797 25.214844 11.216797 25.214844 L 12.919922 25.214844 C 13.165922 25.214844 13.371484 25.028203 13.396484 24.783203 C 13.413484 24.615203 13.433172 24.422047 13.451172 24.248047 C 13.464172 24.118047 13.421984 23.987625 13.333984 23.890625 C 13.245984 23.793625 13.121234 23.738281 12.990234 23.738281 L 9.8066406 23.738281 z M 22.068359 23.738281 C 21.706359 23.738281 21.410344 24.029578 21.402344 24.392578 C 21.371344 25.801578 21.296625 29.118063 21.265625 30.539062 C 21.261625 30.714062 21.329172 30.884766 21.451172 31.009766 C 21.574172 31.134766 21.742969 31.205078 21.917969 31.205078 C 22.829969 31.205078 24.4495 31.204172 25.3125 31.201172 C 25.6335 31.201172 25.894531 30.942094 25.894531 30.621094 L 25.894531 30.246094 C 25.894531 29.948094 25.655422 29.703266 25.357422 29.697266 C 24.796422 29.685266 23.928781 29.668203 23.425781 29.658203 C 23.204781 29.653203 23.027344 29.472953 23.027344 29.251953 L 23.027344 28.517578 C 23.027344 28.317578 23.188672 28.155344 23.388672 28.152344 C 23.782672 28.148344 24.417766 28.140766 24.884766 28.134766 C 25.041766 28.132766 25.191781 28.067078 25.300781 27.955078 C 25.409781 27.843078 25.467844 27.691156 25.464844 27.535156 C 25.462844 27.422156 25.459031 27.305359 25.457031 27.193359 C 25.450031 26.883359 25.197719 26.634766 24.886719 26.634766 L 23.568359 26.634766 C 23.319359 26.634766 23.117188 26.432594 23.117188 26.183594 L 23.117188 25.457031 C 23.117188 25.233031 23.299437 25.050781 23.523438 25.050781 L 25.216797 25.050781 C 25.332797 25.050781 25.444344 25.005828 25.527344 24.923828 C 25.610344 24.841828 25.65625 24.729281 25.65625 24.613281 L 25.65625 24.179688 C 25.65625 24.062688 25.610344 23.950187 25.527344 23.867188 C 25.444344 23.784187 25.331844 23.738281 25.214844 23.738281 L 22.068359 23.738281 z M 35.257812 23.738281 C 35.039812 23.738281 34.830594 23.830234 34.683594 23.990234 C 34.536594 24.150234 34.463422 24.366984 34.482422 24.583984 C 34.612422 26.057984 34.878953 29.07575 35.001953 30.46875 C 35.038953 30.88575 35.385687 31.203125 35.804688 31.203125 L 39.097656 31.203125 C 40.978656 30.755125 41.427734 29.232422 41.427734 29.232422 C 42.053734 27.411422 41.126953 25.769531 41.126953 25.769531 C 40.111953 23.858531 37.931641 23.738281 37.931641 23.738281 L 35.257812 23.738281 z M 27.310547 23.740234 C 26.941547 23.740234 26.642578 24.039203 26.642578 24.408203 L 26.642578 30.605469 C 26.642578 30.936469 26.911188 31.205078 27.242188 31.205078 C 27.448188 31.205078 27.676953 31.204078 27.876953 31.205078 C 28.014953 31.205078 28.147141 31.149781 28.244141 31.050781 C 28.341141 30.951781 28.394625 30.816734 28.390625 30.677734 C 28.352625 29.361734 28.255859 26.039062 28.255859 26.039062 L 31.929688 31.205078 L 32.982422 31.205078 C 33.182422 31.205078 33.373719 31.123516 33.511719 30.978516 C 33.649719 30.832516 33.722891 30.6375 33.712891 30.4375 C 33.638891 28.9405 33.477109 25.658266 33.412109 24.322266 C 33.396109 23.996266 33.127781 23.740234 32.800781 23.740234 L 32.320312 23.740234 C 32.158313 23.740234 32.004578 23.806828 31.892578 23.923828 C 31.780578 24.040828 31.720516 24.199328 31.728516 24.361328 C 31.790516 25.654328 31.927734 28.517578 31.927734 28.517578 C 31.927734 28.517578 29.297094 24.888078 28.621094 23.955078 C 28.523094 23.819078 28.365266 23.740234 28.197266 23.740234 L 27.310547 23.740234 z M 36.873047 25.216797 L 37.873047 25.216797 C 37.873047 25.216797 39.574766 25.889094 39.634766 27.621094 C 39.633766 27.620094 39.873453 29.085188 38.439453 29.742188 L 37.068359 29.742188 C 36.881359 29.742188 36.725938 29.598109 36.710938 29.412109 C 36.648938 28.625109 36.490969 26.635031 36.417969 25.707031 C 36.407969 25.580031 36.450109 25.454328 36.537109 25.361328 C 36.623109 25.268328 36.746047 25.216797 36.873047 25.216797 z M 12.037109 32.679688 C 11.870109 32.679688 11.712422 32.756719 11.607422 32.886719 C 11.413422 33.127719 11.086219 33.532422 10.824219 33.857422 C 10.593219 34.143422 10.610281 34.558219 10.863281 34.824219 C 11.207281 35.184219 11.661812 35.660531 11.882812 35.894531 C 11.967813 35.984531 12.084031 36.035156 12.207031 36.035156 C 14.428031 36.030156 35.093859 35.980609 37.630859 35.974609 C 37.793859 35.974609 37.951406 35.910922 38.066406 35.794922 C 38.303406 35.558922 38.729641 35.134594 39.056641 34.808594 C 39.312641 34.553594 39.331562 34.144234 39.101562 33.865234 C 38.829563 33.535234 38.488062 33.119906 38.289062 32.878906 C 38.186062 32.753906 38.032141 32.679687 37.869141 32.679688 L 12.037109 32.679688 z M 23.142578 33.296875 C 23.428578 33.296875 23.670141 33.345312 23.869141 33.445312 C 24.068141 33.544312 24.169922 33.664688 24.169922 33.804688 L 24.169922 34.046875 L 23.496094 34.046875 L 23.496094 33.798828 C 23.496094 33.747828 23.459719 33.703969 23.386719 33.667969 C 23.313719 33.631969 23.224094 33.613281 23.121094 33.613281 C 23.018094 33.613281 22.932375 33.631969 22.859375 33.667969 C 22.787375 33.703969 22.751953 33.747828 22.751953 33.798828 L 22.751953 34.957031 C 22.751953 35.008031 22.787375 35.050937 22.859375 35.085938 C 22.931375 35.120937 23.018094 35.138672 23.121094 35.138672 C 23.224094 35.138672 23.313719 35.120937 23.386719 35.085938 C 23.459719 35.050938 23.496094 35.008031 23.496094 34.957031 L 23.496094 34.539062 L 23.136719 34.539062 L 23.136719 34.21875 L 24.169922 34.21875 L 24.169922 34.958984 C 24.169922 35.099984 24.068188 35.218406 23.867188 35.316406 C 23.664187 35.415406 23.421625 35.464844 23.140625 35.464844 C 22.854625 35.464844 22.612109 35.415406 22.412109 35.316406 C 22.212109 35.217406 22.111328 35.098938 22.111328 34.960938 L 22.111328 33.804688 C 22.111328 33.663688 22.213063 33.544312 22.414062 33.445312 C 22.615063 33.346313 22.858578 33.296875 23.142578 33.296875 z M 25.955078 33.296875 L 26.923828 33.318359 C 27.179828 33.324359 27.410188 33.352922 27.617188 33.419922 C 27.793187 33.475922 27.918141 33.563641 27.994141 33.681641 C 28.035141 33.744641 28.056641 33.81925 28.056641 33.90625 C 28.056641 34.04825 27.979172 34.161094 27.826172 34.246094 C 27.762172 34.282094 27.687562 34.311078 27.601562 34.330078 C 27.745562 34.357078 27.86875 34.411234 27.96875 34.490234 C 28.03475 34.544234 28.082234 34.614219 28.115234 34.699219 C 28.131234 34.743219 28.140625 34.791703 28.140625 34.845703 C 28.140625 34.979703 28.089328 35.0945 27.986328 35.1875 C 27.906328 35.2605 27.793484 35.319281 27.646484 35.363281 C 27.481484 35.413281 27.317297 35.4375 27.154297 35.4375 L 25.951172 35.4375 L 25.955078 33.296875 z M 35.314453 33.296875 C 35.600453 33.296875 35.843969 33.345312 36.042969 33.445312 C 36.241969 33.544312 36.341797 33.664688 36.341797 33.804688 L 36.341797 34.046875 L 35.667969 34.046875 L 35.667969 33.798828 C 35.667969 33.747828 35.631594 33.703969 35.558594 33.667969 C 35.485594 33.631969 35.397922 33.613281 35.294922 33.613281 C 35.191922 33.613281 35.10425 33.631969 35.03125 33.667969 C 34.95925 33.703969 34.923828 33.747828 34.923828 33.798828 L 34.923828 34.957031 C 34.923828 35.008031 34.95925 35.050937 35.03125 35.085938 C 35.10325 35.120937 35.191922 35.138672 35.294922 35.138672 C 35.397922 35.138672 35.485594 35.120937 35.558594 35.085938 C 35.631594 35.050938 35.667969 35.008031 35.667969 34.957031 L 35.667969 34.539062 L 35.306641 34.539062 L 35.306641 34.21875 L 36.339844 34.21875 L 36.339844 34.958984 C 36.339844 35.099984 36.238109 35.218406 36.037109 35.316406 C 35.836109 35.414406 35.5945 35.464844 35.3125 35.464844 C 35.0265 35.464844 34.783984 35.415406 34.583984 35.316406 C 34.383984 35.217406 34.283203 35.098938 34.283203 34.960938 L 34.283203 33.804688 C 34.283203 33.663688 34.384938 33.544312 34.585938 33.445312 C 34.786938 33.346313 35.030453 33.296875 35.314453 33.296875 z M 13.779297 33.318359 L 14.751953 33.318359 C 15.007953 33.318359 15.237359 33.352922 15.443359 33.419922 C 15.619359 33.475922 15.746266 33.563641 15.822266 33.681641 C 15.863266 33.744641 15.884766 33.81925 15.884766 33.90625 C 15.884766 34.04825 15.807297 34.161094 15.654297 34.246094 C 15.590297 34.282094 15.514734 34.311078 15.427734 34.330078 C 15.571734 34.357078 15.694922 34.411234 15.794922 34.490234 C 15.860922 34.544234 15.909406 34.614219 15.941406 34.699219 C 15.957406 34.743219 15.966797 34.791703 15.966797 34.845703 C 15.966797 34.979703 15.9155 35.0945 15.8125 35.1875 C 15.7325 35.2605 15.619656 35.319281 15.472656 35.363281 C 15.307656 35.413281 15.142469 35.4375 14.980469 35.4375 L 13.779297 35.4375 L 13.779297 33.318359 z M 19.302734 33.318359 L 20.03125 33.318359 L 20.892578 34.742188 L 20.892578 33.318359 L 21.541016 33.318359 L 21.541016 35.4375 L 20.84375 35.4375 L 19.951172 34.080078 L 19.951172 35.4375 L 19.302734 35.4375 L 19.302734 33.318359 z M 31.474609 33.318359 L 32.203125 33.318359 L 33.064453 34.742188 L 33.064453 33.318359 L 33.714844 33.318359 L 33.714844 35.4375 L 33.017578 35.4375 L 32.123047 34.080078 L 32.123047 35.4375 L 31.474609 35.4375 L 31.474609 33.318359 z M 17.142578 33.320312 L 18.035156 33.320312 L 18.755859 35.4375 L 18.074219 35.4375 L 17.921875 34.951172 L 17.246094 34.951172 L 17.087891 35.4375 L 16.412109 35.4375 L 17.142578 33.320312 z M 29.314453 33.320312 L 30.207031 33.320312 L 30.927734 35.4375 L 30.246094 35.4375 L 30.09375 34.951172 L 29.417969 34.951172 L 29.259766 35.4375 L 28.583984 35.4375 L 29.314453 33.320312 z M 14.480469 33.642578 L 14.480469 34.183594 L 14.751953 34.183594 C 14.952953 34.183594 15.08725 34.136063 15.15625 34.039062 C 15.18125 34.003062 15.193359 33.957297 15.193359 33.904297 C 15.193359 33.816297 15.1505 33.750078 15.0625 33.705078 C 14.9825 33.663078 14.879953 33.642578 14.751953 33.642578 L 14.480469 33.642578 z M 26.652344 33.642578 L 26.652344 34.183594 L 26.923828 34.183594 C 27.124828 34.183594 27.259125 34.136063 27.328125 34.039062 C 27.353125 34.003062 27.365234 33.957297 27.365234 33.904297 C 27.365234 33.816297 27.322328 33.750078 27.236328 33.705078 C 27.156328 33.663078 27.051828 33.642578 26.923828 33.642578 L 26.652344 33.642578 z M 17.587891 33.804688 L 17.347656 34.640625 L 17.828125 34.640625 L 17.587891 33.804688 z M 29.759766 33.804688 L 29.519531 34.640625 L 30 34.640625 L 29.759766 33.804688 z M 14.480469 34.490234 L 14.480469 35.121094 L 14.751953 35.121094 C 14.971953 35.121094 15.122031 35.066078 15.207031 34.955078 C 15.237031 34.917078 15.253906 34.872266 15.253906 34.822266 C 15.253906 34.704266 15.206234 34.619453 15.115234 34.564453 C 15.033234 34.515453 14.911953 34.490234 14.751953 34.490234 L 14.480469 34.490234 z M 26.652344 34.490234 L 26.652344 35.121094 L 26.923828 35.121094 C 27.143828 35.121094 27.295859 35.066078 27.380859 34.955078 C 27.410859 34.917078 27.425781 34.872266 27.425781 34.822266 C 27.425781 34.704266 27.378109 34.619453 27.287109 34.564453 C 27.205109 34.515453 27.083828 34.490234 26.923828 34.490234 L 26.652344 34.490234 z"/></svg>